Coordinates
version=1
nRows=7
nColumns=40
inDegrees=yes

Units are S.I. units (second, meters, Newtons, ...)
Angles are in degrees.

endheader
time	pelvis_tilt	pelvis_list	pelvis_rotation	pelvis_tx	pelvis_ty	pelvis_tz	hip_flexion_r	hip_adduction_r	hip_rotation_r	knee_angle_r	knee_angle_r_beta	ankle_angle_r	subtalar_angle_r	mtp_angle_r	hip_flexion_l	hip_adduction_l	hip_rotation_l	knee_angle_l	knee_angle_l_beta	ankle_angle_l	subtalar_angle_l	mtp_angle_l	lumbar_extension	lumbar_bending	lumbar_rotation	arm_flex_r	arm_add_r	arm_rot_r	elbow_flex_r	pro_sup_r	wrist_flex_r	wrist_dev_r	arm_flex_l	arm_add_l	arm_rot_l	elbow_flex_l	pro_sup_l	wrist_flex_l	wrist_dev_l
      9.33750000	     -2.95222180	     -6.23533019	      6.84269074	      1.06217190	      0.93281304	      0.49254105	      7.51307386	      5.30152105	    -19.87877705	     11.21042010	     11.21042010	      8.89831022	     -0.50601542	     -5.97982413	     35.83197954	    -12.54740435	      0.55413527	     56.63329224	     56.63329224	     10.59636431	    -18.65960904	     14.95714237	    -10.89855756	      6.82365651	      3.13834223	     25.18933554	    -16.17104743	     -5.57775173	     48.11929092	     45.64151295	      0.00000000	      0.00000000	      2.56281932	     -7.26787903	     -1.11327711	     35.86772274	     46.74325266	      0.00000000	      0.00000000
      9.34871429	     -3.10009763	     -6.29157210	      6.84059290	      1.06124530	      0.93270247	      0.49260204	      6.63862553	      5.55320363	    -20.10467932	     10.28252773	     10.28252773	      8.93546054	      0.33482432	     -6.52537884	     36.42316973	    -12.36146571	      0.39980458	     53.25161331	     53.25161331	     10.10888690	    -18.52008213	     14.43406152	    -10.84316481	      6.82121684	      3.80058708	     26.45701213	    -17.09446972	     -4.71113063	     51.51606296	     45.48683990	      0.00000000	      0.00000000	      2.79368976	     -6.47876802	     -1.18911509	     30.82515376	     46.70398617	      0.00000000	      0.00000000
      9.35992857	     -3.25839850	     -6.31095585	      6.84184756	      1.06036872	      0.93244362	      0.49254221	      5.78214345	      5.78427534	    -20.06807760	      9.37887534	      9.37887534	      9.11876760	      0.80910609	     -6.55819118	     36.86585224	    -12.03258986	      0.38105799	     49.66326049	     49.66326049	      9.85102734	    -18.27382391	     14.66553583	    -10.81588378	      6.74190067	      3.56961492	     28.71544036	    -16.89766565	     -4.78034865	     53.50645804	     45.43125406	      0.00000000	      0.00000000	      1.36149847	     -6.27504697	     -1.09691011	     29.33695285	     46.65487496	      0.00000000	      0.00000000
      9.37114286	     -3.42882071	     -6.41667392	      6.85328160	      1.05955024	      0.93192939	      0.49233036	      4.91829572	      6.08506649	    -20.23991275	      8.43043730	      8.43043730	      9.25122105	      1.61361476	     -6.78431887	     37.21830550	    -11.73754474	      0.50258379	     45.92774346	     45.92774346	      9.36091882	    -17.82876322	     14.32250938	    -10.73766829	      6.80921449	      3.45729646	     30.74717439	    -16.90034683	     -4.62227883	     56.03086254	     45.34821484	      0.00000000	      0.00000000	      0.27035177	     -5.97460424	     -0.92424040	     27.21304624	     46.59637048	      0.00000000	      0.00000000
      9.38235714	     -3.59127832	     -6.43271714	      6.83379218	      1.05883662	      0.93129951	      0.49196301	      4.12823564	      6.23718671	    -20.42932561	      7.69434917	      7.69434917	      9.40939183	      2.39140427	     -7.33005923	     37.26654644	    -11.36825386	      0.55608442	     41.85355268	     41.85355268	      8.29028800	    -17.19127946	     12.27554413	    -10.69147151	      6.76300097	      4.11326190	     31.79708929	    -17.80263492	     -4.28361323	     59.75466254	     45.22599027	      0.00000000	      0.00000000	     -0.04076823	     -5.50457301	     -0.58852031	     24.19174825	     46.49890966	      0.00000000	      0.00000000
      9.39357143	     -3.81341594	     -6.46458147	      6.79659005	      1.05820202	      0.93043424	      0.49153945	      3.41153555	      6.41464754	    -20.35480153	      6.98331414	      6.98331414	      9.68214939	      2.82897247	     -7.40944273	     37.38448365	    -10.98655480	      0.71400185	     38.00222275	     38.00222275	      8.17161857	    -15.97511967	     12.52887491	    -10.54246170	      6.69838822	      3.93232610	     33.96543302	    -17.56984997	     -4.38963921	     61.55610720	     45.18111013	      0.00000000	      0.00000000	     -1.46240952	     -5.40405844	     -0.47308091	     23.26067734	     46.44572516	      0.00000000	      0.00000000
      9.40478571	     -3.99447280	     -6.61539556	      6.79395165	      1.05772949	      0.92934582	      0.49095747	      2.60456066	      6.70689563	    -20.61250004	      6.18274757	      6.18274757	      9.93245142	      3.83037480	     -7.71147642	     37.39031396	    -10.73998150	      0.94697054	     34.19060233	     34.19060233	      7.74063446	    -14.39654184	     11.57053791	    -10.46596463	      6.83005704	      3.93995181	     35.58957219	    -17.79330655	     -4.11744349	     64.72301979	     45.08541252	      0.00000000	      0.00000000	     -2.59274106	     -5.20102126	     -0.00255874	     21.97453770	     46.31440686	      0.00000000	      0.00000000
